<svg width="234" height="41" viewBox="0 0 234 41" fill="none" xmlns="http://www.w3.org/2000/svg">
<g id="&#229;&#155;&#190;&#229;&#177;&#130; 1-2">
<path id="Vector" d="M18.3609 11.8444H5.02767V0.730957H0.580811V30.3645H5.02767V16.284H18.3609V30.3645H22.8078V0.730957H18.3609V11.8444Z" fill="#989A99"/>
<path id="Vector_2" d="M33.174 11.8447H28.7271V30.3647H33.174V11.8447Z" fill="#989A99"/>
<path id="Vector_3" d="M33.174 0.730957H28.7271V5.17782H33.174V0.730957Z" fill="#989A99"/>
<path id="Vector_4" d="M47.2472 11.8447H39.1007V40.731H43.5476V30.3648H47.2472C51.3424 30.3648 54.6537 27.0534 54.6611 22.9582V19.2513C54.6611 15.1634 51.3424 11.8447 47.2545 11.8447C47.2545 11.8447 47.2545 11.8447 47.2472 11.8447ZM50.1776 22.9582C50.1776 24.5772 48.8662 25.8886 47.2472 25.8886H43.5476V16.2843H47.2472C48.8735 16.3062 50.1776 17.6249 50.1776 19.2513V22.9582Z" fill="#989A99"/>
<path id="Vector_5" d="M74.6602 19.2513C74.6602 15.1634 71.3415 11.8447 67.2537 11.8447C67.2537 11.8447 67.2537 11.8447 67.2463 11.8447H66.5137C62.4258 11.8447 59.1072 15.1561 59.0999 19.2439C59.0999 19.2439 59.0999 19.2439 59.0999 19.2513V22.9582C59.0999 27.0461 62.4185 30.3647 66.5064 30.3647C66.5064 30.3647 66.5064 30.3647 66.5137 30.3647H73.1804V25.9179H66.5137C65.1658 25.9325 63.9863 25.0241 63.6493 23.7201H70.2426C72.6968 23.7055 74.6749 21.7055 74.6602 19.2513ZM63.5833 19.2513C63.5833 17.6249 64.8874 16.3062 66.5137 16.2843H67.2463C67.7958 16.2843 68.3379 16.4454 68.8068 16.7385C68.9606 16.8337 69.1145 16.9509 69.2463 17.0755C69.8617 17.6396 70.2133 18.4381 70.206 19.2732L63.5833 19.2513Z" fill="#989A99"/>
<path id="Vector_6" d="M79.0994 20.7311V30.3647H83.5463V20.7311C83.5463 18.2769 85.539 16.2843 87.9932 16.2843V11.8447C83.0848 11.8447 79.1068 15.8227 79.0994 20.7311Z" fill="#989A99"/>
<path id="Vector_7" d="M190.189 30.3645H195.024L188.673 18.3572C192.116 17.6466 194.585 14.621 194.585 11.1045V8.1375C194.585 4.04962 191.266 0.730957 187.178 0.730957H176.863V30.3645H181.303V18.5111H183.918L190.189 30.3645ZM181.303 5.17782H187.163C188.775 5.19979 190.072 6.49649 190.094 8.1082V11.0752C190.072 12.6869 188.775 13.9836 187.163 14.0056H181.303V5.17782Z" fill="#773DBD"/>
<path id="Vector_8" d="M170.937 0.730957H148.71V5.17782H157.604V30.3645H162.065V5.17782H170.937V0.730957Z" fill="#773DBD"/>
<path id="Vector_9" d="M142.388 30.3645H147.23L138.549 0.730957H133.707L125.025 30.3645H129.86L132.681 20.7308H139.567L142.388 30.3645ZM133.985 16.2913L136.124 8.96534L138.263 16.2913H133.985Z" fill="#773DBD"/>
<path id="Vector_10" d="M115.729 0.730957L107.246 23.7858L98.7548 0.730957H93.9124V30.3645H98.3519V12.7822L104.821 30.3645H109.671L116.132 12.7822V30.3645H120.579V0.730957H115.729Z" fill="#773DBD"/>
<path id="Vector_11" d="M205.332 0.730957H200.885V30.3645H205.332V0.730957Z" fill="#773DBD"/>
<path id="Vector_12" d="M233.419 0.730957H228.577L222.306 11.4195L216.035 0.730957H211.192L219.881 15.5441L211.192 30.3645H216.035L222.306 19.6686L228.577 30.3645H233.419L224.723 15.5441L233.419 0.730957Z" fill="#773DBD"/>
</g>
</svg>
