<svg width="203" height="41" viewBox="0 0 203 41" fill="none" xmlns="http://www.w3.org/2000/svg">
<g id="Group 10">
<path id="Vector" d="M17.6732 11.4791H4.43647V0.424316H0V29.8796H4.43647V15.8429H17.6732V29.8796H22.0369V0.424316H17.6732V11.4791Z" fill="#989A99"/>
<path id="Vector_2" d="M32.3647 11.479H27.9282V29.8795H32.3647V11.479Z" fill="#989A99"/>
<path id="Vector_3" d="M32.3647 0.424316H27.9282V4.86079H32.3647V0.424316Z" fill="#989A99"/>
<path id="Vector_4" d="M46.3292 11.479H38.2563V40.1343H42.6928V29.8795H46.3292C50.402 29.8795 53.6749 26.6067 53.6749 22.5338V18.8246C53.6749 14.7518 50.402 11.479 46.3292 11.479ZM49.2384 22.4611C49.2384 24.0611 47.9293 25.3703 46.3292 25.3703H42.6928V15.8427H46.3292C47.9293 15.8427 49.2384 17.1519 49.2384 18.7519V22.4611Z" fill="#989A99"/>
<path id="Vector_5" d="M73.5304 18.8246C73.5304 14.7518 70.2576 11.479 66.1847 11.479H65.4575C61.3846 11.479 58.1118 14.7518 58.1118 18.8246V22.5338C58.1118 26.6067 61.3846 29.8795 65.4575 29.8795H72.0758V25.443H65.4575C64.1483 25.443 62.9119 24.5702 62.621 23.2611H69.1666C71.5667 23.2611 73.5304 21.2247 73.5304 18.8246ZM62.5483 18.8246C62.5483 17.2246 63.8574 15.9155 65.4575 15.8427H66.1847C66.7666 15.8427 67.2757 15.9882 67.7121 16.2791C67.8575 16.3519 68.003 16.4973 68.1484 16.6428C68.7303 17.2246 69.0939 18.0246 69.0939 18.8246H62.5483Z" fill="#989A99"/>
<path id="Vector_6" d="M77.967 20.2802V29.8804H82.4035V20.2802C82.4035 17.8074 84.3671 15.8437 86.8399 15.8437V11.4072C81.8944 11.48 77.967 15.4073 77.967 20.2802Z" fill="#989A99"/>
<path id="Vector_7" d="M179.433 0.134277H174.997V29.5896H179.433V0.134277Z" fill="#009BBF"/>
<path id="Vector_8" d="M169.105 0.134277H147.068V4.57075H155.869V29.5896H160.305V4.57075H169.105V0.134277Z" fill="#009BBF"/>
<path id="Vector_9" d="M140.741 29.5896H145.541L136.959 0.134277H132.159L123.577 29.5896H128.377L131.213 20.062H138.05L140.741 29.5896ZM132.449 15.6256L134.559 8.35266L136.668 15.6256H132.449Z" fill="#009BBF"/>
<path id="Vector_10" d="M114.339 0.134277L105.903 23.0439L97.4661 0.134277H92.666V29.5896H97.0297V12.1346L103.503 29.5896H108.303L114.703 12.1346V29.5896H119.139V0.134277H114.339Z" fill="#009BBF"/>
<path id="Vector_11" d="M189.689 7.55169C189.689 5.95165 190.998 4.64253 192.598 4.64253H202.925V0.206055H192.598C188.525 0.206055 185.252 3.47886 185.252 7.55169V22.243C185.252 26.3158 188.525 29.5886 192.598 29.5886H202.925V25.1521H192.598C190.998 25.1521 189.689 23.843 189.689 22.243V7.55169Z" fill="#009BBF"/>
</g>
</svg>
