<svg width="180" height="41" viewBox="0 0 180 41" fill="none" xmlns="http://www.w3.org/2000/svg">
<g id="&#229;&#155;&#190;&#229;&#177;&#130; 1-2">
<path id="Vector" d="M17.7782 11.8444H4.4449V0.730957H-0.00195312V30.3645H4.4449V16.284H17.7782V30.3645H22.225V0.730957H17.7782V11.8444Z" fill="#989A99"/>
<path id="Vector_2" d="M32.5911 11.8447H28.1443V30.3647H32.5911V11.8447Z" fill="#989A99"/>
<path id="Vector_3" d="M32.5911 0.730957H28.1443V5.17782H32.5911V0.730957Z" fill="#989A99"/>
<path id="Vector_4" d="M46.6643 11.8447H38.5178V40.731H42.9647V30.3648H46.6643C50.7595 30.3648 54.0708 27.0534 54.0782 22.9582V19.2513C54.0782 15.1561 50.7595 11.8447 46.6643 11.8447ZM49.5947 22.9582C49.5947 24.5772 48.2833 25.8886 46.6643 25.8886H42.9647V16.2843H46.6643C48.2907 16.3062 49.5947 17.6249 49.5947 19.2513V22.9582Z" fill="#989A99"/>
<path id="Vector_5" d="M74.0776 19.2513C74.0776 15.1634 70.7589 11.8447 66.671 11.8447C66.671 11.8447 66.671 11.8447 66.6637 11.8447H65.9311C61.8432 11.8447 58.5245 15.1561 58.5172 19.2439C58.5172 19.2439 58.5172 19.2439 58.5172 19.2513V22.9582C58.5172 27.0461 61.8359 30.3647 65.9238 30.3647C65.9238 30.3647 65.9238 30.3647 65.9311 30.3647H72.5977V25.9179H65.9311C64.5831 25.9325 63.4036 25.0241 63.0666 23.7201H69.66C72.1142 23.7055 74.0922 21.7055 74.0776 19.2513ZM63.0007 19.2513C63.0007 17.6249 64.3047 16.3062 65.9311 16.2843H66.6637C67.2131 16.2843 67.7553 16.4454 68.2241 16.7385C68.378 16.8337 68.5318 16.9509 68.6637 17.0755C69.2791 17.6396 69.6307 18.4381 69.6234 19.2732L63.0007 19.2513Z" fill="#989A99"/>
<path id="Vector_6" d="M78.5167 20.7311V30.3647H82.9636V20.7311C82.9636 18.2769 84.9562 16.2843 87.4104 16.2843V11.8447C82.502 11.8447 78.524 15.8227 78.5167 20.7311Z" fill="#989A99"/>
<path id="Vector_7" d="M156.289 0.730957H151.842V21.6612L141.146 0.730957H136.311L136.303 30.3645H140.743V9.41222L151.446 30.3645H156.289V0.730957Z" fill="#EC662C"/>
<path id="Vector_8" d="M130.391 0.730957H125.929V30.3645H130.391V0.730957Z" fill="#EC662C"/>
<path id="Vector_9" d="M115.153 0.730957L106.67 23.7858L98.1865 0.730957H93.3367V30.3645H97.7762V12.7822L104.245 30.3645H109.095L115.556 12.7822V30.3645H120.003V0.730957H115.153Z" fill="#EC662C"/>
<path id="Vector_10" d="M172.595 0.730957H162.229V30.3645H172.595C176.683 30.3645 180.002 27.0458 180.002 22.9579V8.1375C180.002 4.04962 176.683 0.730957 172.595 0.730957ZM175.562 22.9579C175.562 24.577 174.251 25.8883 172.632 25.8883C172.617 25.8883 172.61 25.8883 172.595 25.8883H166.669V5.17782H172.595C174.214 5.15584 175.54 6.45253 175.562 8.07157C175.562 8.08622 175.562 8.09355 175.562 8.1082V22.9579Z" fill="#EC662C"/>
</g>
</svg>
