<?xml version="1.0" standalone="no"?><!DOCTYPE svg PUBLIC "-//W3C//DTD SVG 1.1//EN" "http://www.w3.org/Graphics/SVG/1.1/DTD/svg11.dtd"><svg t="1710747343060" class="icon" viewBox="0 0 7591 1024" version="1.1" xmlns="http://www.w3.org/2000/svg" p-id="7519" xmlns:xlink="http://www.w3.org/1999/xlink" width="1482.6171875" height="200"><path d="M6799.783724 193.147586h-53.918896v20.40938h-102.294069v40.536275h102.294069v30.437518h-102.294069v40.783448h102.294069v30.472827h-102.294069v40.536276h258.507034v-40.536276h-102.294069v-30.472827h102.294069V284.530759h-102.294069v-30.437518h102.294069V213.556966h-102.294069V193.147586zM6396.045241 680.571586h-53.918896v121.856h53.918896v-121.820689zM6600.598069 396.32331v-40.536276h-102.258759v-30.472827h102.258759V284.530759h-102.258759v-30.437518h102.258759V213.556966h-102.258759V193.147586h-53.954207v20.40938h-102.258758v40.536275h102.258758v30.437518h-102.258758v40.783448h102.258758v30.472827h-102.258758v40.536276h258.471724zM6342.126345 436.788966v40.748137h505.997241v40.536276h-505.997241v40.536276h505.997241v40.536276h-505.997241v40.783448h559.951448v-203.175724h-559.951448zM6503.671172 680.571586h-64.617931l85.98069 121.856h377.043862v-40.536276h-340.992l-57.414621-81.319724z" p-id="7520"></path><path d="M6561.085793 680.571586l28.566069 40.536276h312.425931v-40.536276h-340.992zM7289.785379 396.25269h301.479724V213.486345h-301.479724v182.766345z m247.808-40.536276h-193.889103V254.269793h193.889103v101.446621zM7289.785379 477.289931h112.957793v121.82069h-112.957793v40.818758h112.957793v121.82069h-112.957793v40.536276h301.479724v-40.500966h-134.603034v-121.856h134.603034v-40.783448h-134.603034v-121.856h134.603034v-40.536276h-301.479724v40.536276zM7031.313655 325.314207l85.98069-30.967173v61.44h-85.98069v40.536276h85.98069v406.068966h53.918896v-406.068966h86.263173v-40.536276h-86.263173V274.961655l86.263173-30.967172V193.147586l-226.162759 81.319724v50.846897z" p-id="7521"></path><path d="M7208.889379 802.321655h48.304552v-347.665655l-48.304552-17.37269v365.038345zM7031.313655 802.321655h48.339862V437.28331l-48.339862 17.37269v347.665655zM562.635034 36.510897c0-12.358621-10.699034-22.422069-23.763862-22.422069-13.100138 0-23.763862 10.098759-23.763862 22.422069 0 12.358621 10.663724 22.422069 23.763862 22.422069 13.064828 0 23.763862-10.098759 23.763862-22.422069zM1062.770759 36.510897c0-12.358621-10.699034-22.422069-23.763862-22.422069-13.064828 0-23.763862 10.098759-23.763863 22.422069 0 12.358621 10.663724 22.422069 23.763863 22.422069 13.064828 0 23.763862-10.098759 23.763862-22.422069zM62.746483 36.510897c0-12.358621-10.663724-22.422069-23.763862-22.422069-13.064828 0-23.763862 10.098759-23.763862 22.422069 0 12.358621 10.699034 22.422069 23.763862 22.422069 13.064828 0 23.763862-10.098759 23.763862-22.422069zM562.635034 979.367724c0-12.358621-10.699034-22.386759-23.763862-22.386758-13.100138 0-23.763862 10.063448-23.763862 22.386758 0 12.358621 10.663724 22.422069 23.763862 22.422069 13.064828 0 23.763862-10.063448 23.763862-22.422069zM1062.770759 979.367724c0-12.358621-10.699034-22.386759-23.763862-22.386758-13.064828 0-23.763862 10.063448-23.763863 22.386758 0 12.358621 10.663724 22.422069 23.763863 22.422069 13.064828 0 23.763862-10.063448 23.763862-22.422069zM62.746483 979.367724c0-12.358621-10.663724-22.386759-23.763862-22.386758-13.064828 0-23.763862 10.063448-23.763862 22.386758 0 12.358621 10.699034 22.422069 23.763862 22.422069 13.064828 0 23.763862-10.063448 23.763862-22.422069zM601.335172 507.833379c0-32.485517-28.036414-58.897655-62.49931-58.897655-34.427586 0-62.464 26.412138-62.464 58.897655 0 32.485517 28.036414 58.932966 62.49931 58.932966 34.427586 0 62.49931-26.482759 62.499311-58.932966zM351.408552 743.600552c0-32.485517-28.036414-58.897655-62.499311-58.897655-34.427586 0-62.49931 26.412138-62.49931 58.897655 0 32.485517 28.071724 58.897655 62.49931 58.897655 34.462897 0 62.49931-26.412138 62.499311-58.897655zM351.408552 272.136828c0-32.485517-28.036414-58.897655-62.499311-58.897656-34.427586 0-62.49931 26.412138-62.49931 58.897656 0 32.485517 28.071724 58.897655 62.49931 58.897655 34.462897 0 62.49931-26.412138 62.499311-58.897655zM351.408552 507.833379c0-32.485517-28.036414-58.897655-62.499311-58.897655-34.427586 0-62.49931 26.412138-62.49931 58.897655 0 32.485517 28.071724 58.932966 62.49931 58.932966 34.462897 0 62.49931-26.482759 62.499311-58.932966zM851.261793 743.600552c0-32.485517-28.036414-58.897655-62.49931-58.897655-34.427586 0-62.464 26.412138-62.464 58.897655 0 32.485517 28.036414 58.897655 62.49931 58.897655 34.427586 0 62.49931-26.412138 62.49931-58.897655zM851.261793 272.136828c0-32.485517-28.036414-58.897655-62.49931-58.897656-34.427586 0-62.464 26.412138-62.464 58.897656 0 32.485517 28.036414 58.897655 62.49931 58.897655 34.427586 0 62.49931-26.412138 62.49931-58.897655zM851.261793 507.833379c0-32.485517-28.036414-58.897655-62.49931-58.897655-34.427586 0-62.464 26.412138-62.464 58.897655 0 32.485517 28.036414 58.932966 62.49931 58.932966 34.427586 0 62.49931-26.482759 62.49931-58.932966zM577.57131 272.242759c0-20.162207-17.337379-36.546207-38.700138-36.546207-21.362759 0-38.735448 16.384-38.735448 36.510896 0 20.126897 17.37269 36.510897 38.735448 36.510897s38.700138-16.384 38.700138-36.510897zM577.57131 743.635862c0-20.126897-17.337379-36.510897-38.700138-36.510896-21.362759 0-38.735448 16.384-38.735448 36.510896 0 20.126897 17.37269 36.510897 38.735448 36.510897s38.700138-16.34869 38.700138-36.510897z" p-id="7522"></path><path d="M577.57131 743.635862c0-20.126897-17.337379-36.510897-38.700138-36.510896-21.362759 0-38.735448 16.384-38.735448 36.510896 0 20.126897 17.37269 36.510897 38.735448 36.510897s38.700138-16.34869 38.700138-36.510897zM77.435586 743.635862c0-20.126897-17.37269-36.510897-38.700138-36.510896C17.37269 707.124966 0 723.508966 0 743.635862c0 20.126897 17.37269 36.510897 38.735448 36.510897s38.700138-16.34869 38.700138-36.510897zM327.362207 979.367724c0-20.126897-17.337379-36.510897-38.700138-36.510896-21.362759 0-38.735448 16.384-38.735448 36.510896 0 20.126897 17.37269 36.510897 38.735448 36.510897s38.700138-16.384 38.700138-36.510897zM577.57131 272.242759c0-20.162207-17.337379-36.546207-38.700138-36.546207-21.362759 0-38.735448 16.384-38.735448 36.510896 0 20.126897 17.37269 36.510897 38.735448 36.510897s38.700138-16.384 38.700138-36.510897zM77.435586 272.242759c0-20.162207-17.37269-36.546207-38.700138-36.546207C17.37269 235.696552 0 252.115862 0 272.242759c0 20.126897 17.37269 36.510897 38.735448 36.510896s38.700138-16.384 38.700138-36.510896zM327.362207 36.510897C327.362207 16.384 310.024828 0 288.662069 0 267.29931 0 249.926621 16.34869 249.926621 36.510897c0 20.126897 17.37269 36.510897 38.735448 36.510896S327.326897 56.637793 327.326897 36.510897zM77.435586 507.692138c0-20.126897-17.37269-36.510897-38.700138-36.510897-21.362759 0-38.735448 16.34869-38.735448 36.510897 0 20.126897 17.37269 36.475586 38.735448 36.475586s38.700138-16.34869 38.700138-36.475586zM1077.459862 743.635862c0-20.126897-17.37269-36.510897-38.735448-36.510896s-38.700138 16.384-38.700138 36.510896c0 20.126897 17.337379 36.510897 38.700138 36.510897 21.362759 0 38.735448-16.34869 38.735448-36.510897z" p-id="7523"></path><path d="M577.57131 743.635862c0-20.126897-17.337379-36.510897-38.700138-36.510896-21.362759 0-38.735448 16.384-38.735448 36.510896 0 20.126897 17.37269 36.510897 38.735448 36.510897s38.700138-16.34869 38.700138-36.510897zM827.497931 979.367724c0-20.126897-17.337379-36.510897-38.700138-36.510896-21.362759 0-38.735448 16.384-38.735448 36.510896 0 20.126897 17.37269 36.510897 38.735448 36.510897s38.700138-16.384 38.700138-36.510897zM1077.459862 272.242759c0-20.162207-17.37269-36.546207-38.735448-36.546207s-38.700138 16.384-38.700138 36.510896c0 20.126897 17.337379 36.510897 38.700138 36.510897 21.362759 0 38.735448-16.384 38.735448-36.510897zM577.57131 272.242759c0-20.162207-17.337379-36.546207-38.700138-36.546207-21.362759 0-38.735448 16.384-38.735448 36.510896 0 20.126897 17.37269 36.510897 38.735448 36.510897s38.700138-16.384 38.700138-36.510897zM827.497931 36.510897C827.497931 16.384 810.160552 0 788.833103 0c-21.362759 0-38.735448 16.34869-38.735448 36.510897 0 20.126897 17.37269 36.510897 38.735448 36.510896s38.700138-16.384 38.700138-36.510896zM1077.459862 507.692138c0-20.126897-17.37269-36.510897-38.735448-36.510897s-38.700138 16.34869-38.700138 36.510897c0 20.126897 17.337379 36.475586 38.700138 36.475586 21.362759 0 38.735448-16.34869 38.735448-36.475586zM2170.91531 213.486345h-93.713655v88.346483h93.713655V213.486345zM2077.201655 463.730759h-281.176276V213.486345h-93.748965v589.082483h93.748965v-250.209104h281.176276v250.209104h93.713655v-250.209104c0-48.869517-41.913379-88.381793-93.713655-88.381793M2920.730483 213.486345L2780.265931 655.006897 2639.554207 213.486345h-93.748966l187.462621 588.83531h93.713655L3014.444138 213.486345h-93.713655zM3295.620414 213.486345h-93.713655v589.082483h93.713655V213.486345zM4185.900138 213.486345h-93.748966v589.082483h93.748966V213.486345zM5310.322759 213.486345v401.549241l-234.178207-401.549241h-93.713655v588.83531h93.713655V400.772414l234.178207 401.549241h93.713655V213.486345h-93.713655zM3823.545379 525.912276l-215.499034-114.299586a58.191448 58.191448 0 0 1-31.249655-51.12938c0-32.485517 28.036414-58.897655 62.49931-58.897655h218.676966V213.274483h-218.676966c-86.263172 0-156.212966 65.959724-156.212966 147.244138 0 55.649103 32.838621 104.236138 81.178483 129.165241l215.463724 114.299586c18.714483 10.063448 31.249655 29.201655 31.249656 51.094069 0 32.485517-28.036414 58.932966-62.464 58.932966h-265.427863v88.346483h265.427863c86.227862 0 156.177655-65.959724 156.177655-147.244138 0-55.649103-32.838621-104.236138-81.143173-129.165242zM5931.961379 525.912276l-215.499034-114.299586a58.226759 58.226759 0 0 1-31.214345-51.12938c0-32.485517 28.036414-58.897655 62.464-58.897655h218.712276V213.274483h-218.712276c-86.263172 0-156.212966 65.959724-156.212966 147.244138 0 55.649103 32.838621 104.236138 81.178483 129.165241l215.499035 114.299586c18.679172 10.063448 31.249655 29.201655 31.249655 51.094069 0 32.485517-28.036414 58.932966-62.49931 58.932966h-265.427863v88.346483h265.427863c86.263172 0 156.212966-65.959724 156.212965-147.244138 0-55.649103-32.838621-104.236138-81.178483-129.165242zM4638.75531 213.486345h-109.214896c-86.227862 0-156.212966 65.959724-156.212966 147.244138v294.558896c0 81.319724 69.985103 147.279448 156.212966 147.279449h109.214896c86.263172 0 156.212966-65.959724 156.212966-147.244138v-294.558897c0-81.319724-69.949793-147.279448-156.212966-147.279448z m62.499311 441.803034c0 32.485517-28.036414 58.932966-62.499311 58.932966h-109.214896c-34.427586 0-62.464-26.447448-62.464-58.932966v-294.523586c0-32.485517 28.036414-58.932966 62.464-58.932965h109.214896c34.462897 0 62.49931 26.447448 62.499311 58.932965v294.523586z" p-id="7524"></path></svg>