<svg width="215" height="29" viewBox="0 0 215 29" fill="none" xmlns="http://www.w3.org/2000/svg">
<g id="Group 8">
<path id="Vector" d="M192.572 5.47021H191.045V6.04772H188.148V7.1956H191.045V8.0583H188.148V9.21331H191.045V10.076H188.148V11.2239H195.469V10.076H192.572V9.21331H195.469V8.0583H192.572V7.1956H195.469V6.04772H192.572V5.47021Z" fill="#00499E"/>
<path id="Vector_2" d="M181.138 19.2744H179.611V22.7252H181.138V19.2744Z" fill="#00499E"/>
<path id="Vector_3" d="M186.931 11.2239V10.076H184.035V9.21331H186.931V8.0583H184.035V7.1956H186.931V6.04772H184.035V5.47021H182.507V6.04772H179.611V7.1956H182.507V8.0583H179.611V9.21331H182.507V10.076H179.611V11.2239H186.931Z" fill="#00499E"/>
<path id="Vector_4" d="M179.611 12.3691V13.5242H193.941V14.672H179.611V15.8199H193.941V16.9678H179.611V18.1228H193.941H195.469V12.3691H193.941H179.611Z" fill="#00499E"/>
<path id="Vector_5" d="M184.186 19.2744H182.356L184.791 22.7252H195.469V21.5773H185.812L184.186 19.2744Z" fill="#00499E"/>
<path id="Vector_6" d="M185.812 19.2744L186.621 20.4223H195.469V19.2744H185.812Z" fill="#00499E"/>
<path id="Vector_7" d="M206.449 11.2221H214.987V6.0459H206.449V11.2221ZM213.467 10.0742H207.976V7.20091H213.467V10.0742Z" fill="#00499E"/>
<path id="Vector_8" d="M206.449 13.517H209.648V16.9678H206.449V18.1228H209.648V21.5736H206.449V22.7215H214.987V21.5736H211.175V18.1228H214.987V16.9678H211.175V13.517H214.987V12.3691H206.449V13.517Z" fill="#00499E"/>
<path id="Vector_9" d="M199.129 9.21331L201.564 8.33635V10.076H199.129V11.2239H201.564V22.7241H203.091V11.2239H205.534V10.076H203.091V7.78737L205.534 6.91041V5.47021L199.129 7.77311V9.21331Z" fill="#00499E"/>
<path id="Vector_10" d="M204.158 22.7223H205.526V12.8762L204.158 12.3843V22.7223Z" fill="#00499E"/>
<path id="Vector_11" d="M199.129 22.7223H200.498V12.3843L199.129 12.8762V22.7223Z" fill="#00499E"/>
<path id="Vector_12" d="M15.9336 1.03396C15.9336 0.684602 15.6311 0.399414 15.2606 0.399414C14.89 0.399414 14.5875 0.684602 14.5875 1.03396C14.5875 1.38331 14.89 1.6685 15.2606 1.6685C15.6311 1.6685 15.9336 1.38331 15.9336 1.03396Z" fill="#00499E"/>
<path id="Vector_13" d="M30.0977 1.03396C30.0977 0.684602 29.7952 0.399414 29.4247 0.399414C29.0541 0.399414 28.7516 0.684602 28.7516 1.03396C28.7516 1.38331 29.0541 1.6685 29.4247 1.6685C29.7952 1.6685 30.0977 1.38331 30.0977 1.03396Z" fill="#00499E"/>
<path id="Vector_14" d="M1.77711 1.03396C1.77711 0.684602 1.47462 0.399414 1.10407 0.399414C0.733519 0.399414 0.43103 0.684602 0.43103 1.03396C0.43103 1.38331 0.733519 1.6685 1.10407 1.6685C1.47462 1.6685 1.77711 1.38331 1.77711 1.03396Z" fill="#00499E"/>
<path id="Vector_15" d="M15.9336 27.7361C15.9336 27.3867 15.6311 27.1016 15.2606 27.1016C14.89 27.1016 14.5875 27.3867 14.5875 27.7361C14.5875 28.0855 14.89 28.3706 15.2606 28.3706C15.6311 28.3706 15.9336 28.0855 15.9336 27.7361Z" fill="#00499E"/>
<path id="Vector_16" d="M30.0977 27.7361C30.0977 27.3867 29.7952 27.1016 29.4247 27.1016C29.0541 27.1016 28.7516 27.3867 28.7516 27.7361C28.7516 28.0855 29.0541 28.3706 29.4247 28.3706C29.7952 28.3706 30.0977 28.0855 30.0977 27.7361Z" fill="#00499E"/>
<path id="Vector_17" d="M1.77711 27.7361C1.77711 27.3867 1.47462 27.1016 1.10407 27.1016C0.733519 27.1016 0.43103 27.3867 0.43103 27.7361C0.43103 28.0855 0.733519 28.3706 1.10407 28.3706C1.47462 28.3706 1.77711 28.0855 1.77711 27.7361Z" fill="#00499E"/>
<path id="Vector_18" d="M17.0302 14.3822C17.0302 13.4625 16.2361 12.7139 15.2606 12.7139C14.2851 12.7139 13.491 13.4625 13.491 14.3822C13.491 15.3019 14.2851 16.0506 15.2606 16.0506C16.2361 16.0506 17.0302 15.3019 17.0302 14.3822Z" fill="#00499E"/>
<path id="Vector_19" d="M9.95188 21.059C9.95188 20.1392 9.15784 19.3906 8.18231 19.3906C7.20678 19.3906 6.41275 20.1392 6.41275 21.059C6.41275 21.9787 7.20678 22.7273 8.18231 22.7273C9.15784 22.7273 9.95188 21.9787 9.95188 21.059Z" fill="#00499E"/>
<path id="Vector_20" d="M9.95188 7.70692C9.95188 6.78719 9.15784 6.03857 8.18231 6.03857C7.20678 6.03857 6.41275 6.78719 6.41275 7.70692C6.41275 8.62665 7.20678 9.37527 8.18231 9.37527C9.15784 9.37527 9.95188 8.62665 9.95188 7.70692Z" fill="#00499E"/>
<path id="Vector_21" d="M9.95188 14.3822C9.95188 13.4625 9.15784 12.7139 8.18231 12.7139C7.20678 12.7139 6.41275 13.4625 6.41275 14.3822C6.41275 15.3019 7.20678 16.0506 8.18231 16.0506C9.15784 16.0506 9.95188 15.3019 9.95188 14.3822Z" fill="#00499E"/>
<path id="Vector_22" d="M24.1084 21.059C24.1084 20.1392 23.3144 19.3906 22.3389 19.3906C21.3634 19.3906 20.5693 20.1392 20.5693 21.059C20.5693 21.9787 21.3634 22.7273 22.3389 22.7273C23.3144 22.7273 24.1084 21.9787 24.1084 21.059Z" fill="#00499E"/>
<path id="Vector_23" d="M24.1084 7.70692C24.1084 6.78719 23.3144 6.03857 22.3389 6.03857C21.3634 6.03857 20.5693 6.78719 20.5693 7.70692C20.5693 8.62665 21.3634 9.37527 22.3389 9.37527C23.3144 9.37527 24.1084 8.62665 24.1084 7.70692Z" fill="#00499E"/>
<path id="Vector_24" d="M24.1084 14.3822C24.1084 13.4625 23.3144 12.7139 22.3389 12.7139C21.3634 12.7139 20.5693 13.4625 20.5693 14.3822C20.5693 15.3019 21.3634 16.0506 22.3389 16.0506C23.3144 16.0506 24.1084 15.3019 24.1084 14.3822Z" fill="#00499E"/>
<path id="Vector_25" d="M16.3571 7.7091C16.3571 7.13872 15.8655 6.67529 15.2606 6.67529C14.6556 6.67529 14.164 7.13872 14.164 7.7091C14.164 8.27948 14.6556 8.74291 15.2606 8.74291C15.8655 8.74291 16.3571 8.27948 16.3571 7.7091Z" fill="#00499E"/>
<path id="Vector_26" d="M16.3571 21.0602C16.3571 20.4898 15.8655 20.0264 15.2606 20.0264C14.6556 20.0264 14.164 20.4898 14.164 21.0602C14.164 21.6305 14.6556 22.094 15.2606 22.094C15.8655 22.094 16.3571 21.6305 16.3571 21.0602Z" fill="#00499E"/>
<path id="Vector_27" d="M16.3571 21.0602C16.3571 20.4898 15.8655 20.0264 15.2606 20.0264C14.6556 20.0264 14.164 20.4898 14.164 21.0602C14.164 21.6305 14.6556 22.094 15.2606 22.094C15.8655 22.094 16.3571 21.6305 16.3571 21.0602Z" fill="#00499E"/>
<path id="Vector_28" d="M2.19304 21.0602C2.19304 20.4898 1.7015 20.0264 1.09652 20.0264C0.491543 20.0264 0 20.4898 0 21.0602C0 21.6305 0.491543 22.094 1.09652 22.094C1.7015 22.094 2.19304 21.6305 2.19304 21.0602Z" fill="#00499E"/>
<path id="Vector_29" d="M9.27129 27.736C9.27129 27.1656 8.77975 26.7021 8.17477 26.7021C7.56979 26.7021 7.07825 27.1656 7.07825 27.736C7.07825 28.3063 7.56979 28.7698 8.17477 28.7698C8.77975 28.7698 9.27129 28.3063 9.27129 27.736Z" fill="#00499E"/>
<path id="Vector_30" d="M16.3571 7.7091C16.3571 7.13872 15.8655 6.67529 15.2606 6.67529C14.6556 6.67529 14.164 7.13872 14.164 7.7091C14.164 8.27948 14.6556 8.74291 15.2606 8.74291C15.8655 8.74291 16.3571 8.27948 16.3571 7.7091Z" fill="#00499E"/>
<path id="Vector_31" d="M2.19304 7.7091C2.19304 7.13872 1.7015 6.67529 1.09652 6.67529C0.491543 6.67529 0 7.13872 0 7.7091C0 8.27948 0.491543 8.74291 1.09652 8.74291C1.7015 8.74291 2.19304 8.27948 2.19304 7.7091Z" fill="#00499E"/>
<path id="Vector_32" d="M9.27129 1.03381C9.27129 0.46343 8.77975 0 8.17477 0C7.56979 0 7.07825 0.46343 7.07825 1.03381C7.07825 1.60418 7.56979 2.06761 8.17477 2.06761C8.77975 2.06761 9.27129 1.60418 9.27129 1.03381Z" fill="#00499E"/>
<path id="Vector_33" d="M2.19304 14.3776C2.19304 13.8072 1.7015 13.3438 1.09652 13.3438C0.491543 13.3438 0 13.8072 0 14.3776C0 14.9479 0.491543 15.4114 1.09652 15.4114C1.7015 15.4114 2.19304 14.9479 2.19304 14.3776Z" fill="#00499E"/>
<path id="Vector_34" d="M30.5136 21.0602C30.5136 20.4898 30.0221 20.0264 29.4171 20.0264C28.8121 20.0264 28.3206 20.4898 28.3206 21.0602C28.3206 21.6305 28.8121 22.094 29.4171 22.094C30.0221 22.094 30.5136 21.6305 30.5136 21.0602Z" fill="#00499E"/>
<path id="Vector_35" d="M16.3571 21.0602C16.3571 20.4898 15.8655 20.0264 15.2606 20.0264C14.6556 20.0264 14.164 20.4898 14.164 21.0602C14.164 21.6305 14.6556 22.094 15.2606 22.094C15.8655 22.094 16.3571 21.6305 16.3571 21.0602Z" fill="#00499E"/>
<path id="Vector_36" d="M23.4354 27.736C23.4354 27.1656 22.9438 26.7021 22.3388 26.7021C21.7339 26.7021 21.2423 27.1656 21.2423 27.736C21.2423 28.3063 21.7339 28.7698 22.3388 28.7698C22.9438 28.7698 23.4354 28.3063 23.4354 27.736Z" fill="#00499E"/>
<path id="Vector_37" d="M30.5136 7.7091C30.5136 7.13872 30.0221 6.67529 29.4171 6.67529C28.8121 6.67529 28.3206 7.13872 28.3206 7.7091C28.3206 8.27948 28.8121 8.74291 29.4171 8.74291C30.0221 8.74291 30.5136 8.27948 30.5136 7.7091Z" fill="#00499E"/>
<path id="Vector_38" d="M16.3571 7.7091C16.3571 7.13872 15.8655 6.67529 15.2606 6.67529C14.6556 6.67529 14.164 7.13872 14.164 7.7091C14.164 8.27948 14.6556 8.74291 15.2606 8.74291C15.8655 8.74291 16.3571 8.27948 16.3571 7.7091Z" fill="#00499E"/>
<path id="Vector_39" d="M23.4354 1.03381C23.4354 0.46343 22.9438 0 22.3388 0C21.7339 0 21.2423 0.46343 21.2423 1.03381C21.2423 1.60418 21.7339 2.06761 22.3388 2.06761C22.9438 2.06761 23.4354 1.60418 23.4354 1.03381Z" fill="#00499E"/>
<path id="Vector_40" d="M30.5136 14.3776C30.5136 13.8072 30.0221 13.3438 29.4171 13.3438C28.8121 13.3438 28.3206 13.8072 28.3206 14.3776C28.3206 14.9479 28.8121 15.4114 29.4171 15.4114C30.0221 15.4114 30.5136 14.9479 30.5136 14.3776Z" fill="#00499E"/>
<path id="Vector_41" d="M61.481 6.0459H58.8266V8.54842H61.481V6.0459Z" fill="#00499E"/>
<path id="Vector_42" d="M58.8266 13.1328H50.8636V6.0459H48.2092V22.7294H50.8636V15.6425H58.8266V22.7294H61.4809V15.6425C61.4809 14.2593 60.2937 13.1399 58.8266 13.1399" fill="#00499E"/>
<path id="Vector_43" d="M82.7157 6.0459L78.7379 18.5514L74.7526 6.0459H72.0983L77.407 22.7223H80.0613L85.37 6.0459H82.7157Z" fill="#00499E"/>
<path id="Vector_44" d="M93.333 6.0459H90.6787V22.7294H93.333V6.0459Z" fill="#00499E"/>
<path id="Vector_45" d="M118.546 6.0459H115.891V22.7294H118.546V6.0459Z" fill="#00499E"/>
<path id="Vector_46" d="M150.39 6.0459V17.4178L143.758 6.0459H141.104V22.7223H143.758V11.3504L150.39 22.7223H153.044V6.0459H150.39Z" fill="#00499E"/>
<path id="Vector_47" d="M108.284 14.8937L102.181 11.6568C101.651 11.3716 101.296 10.8297 101.296 10.2094C101.296 9.28972 102.09 8.5411 103.066 8.5411H109.259V6.03857H103.066C100.623 6.03857 98.6417 7.90656 98.6417 10.2094C98.6417 11.7851 99.5719 13.1611 100.941 13.867L107.043 17.1039C107.573 17.3891 107.928 17.9309 107.928 18.5512C107.928 19.4709 107.134 20.2195 106.159 20.2195H98.6417V22.7221H106.159C108.601 22.7221 110.582 20.8541 110.582 18.5512C110.582 16.9755 109.652 15.5995 108.284 14.8937Z" fill="#00499E"/>
<path id="Vector_48" d="M167.995 14.8937L161.892 11.6568C161.363 11.3716 161.008 10.8297 161.008 10.2094C161.008 9.28972 161.802 8.5411 162.777 8.5411H168.971V6.03857H162.777C160.334 6.03857 158.353 7.90656 158.353 10.2094C158.353 11.7851 159.283 13.1611 160.652 13.867L166.755 17.1039C167.284 17.3891 167.64 17.9309 167.64 18.5512C167.64 19.4709 166.846 20.2195 165.87 20.2195H158.353V22.7221H165.87C168.313 22.7221 170.294 20.8541 170.294 18.5512C170.294 16.9755 169.364 15.5995 167.995 14.8937Z" fill="#00499E"/>
<path id="Vector_49" d="M131.371 6.0459H128.278C125.836 6.0459 123.854 7.91388 123.854 10.2168V18.5585C123.854 20.8614 125.836 22.7294 128.278 22.7294H131.371C133.814 22.7294 135.795 20.8614 135.795 18.5585V10.2168C135.795 7.91388 133.814 6.0459 131.371 6.0459ZM133.141 18.5585C133.141 19.4782 132.347 20.2269 131.371 20.2269H128.278C127.303 20.2269 126.509 19.4782 126.509 18.5585V10.2168C126.509 9.29704 127.303 8.54842 128.278 8.54842H131.371C132.347 8.54842 133.141 9.29704 133.141 10.2168V18.5585Z" fill="#00499E"/>
</g>
</svg>
